<svg width="78" height="78" viewBox="0 0 78 78" fill="none" xmlns="http://www.w3.org/2000/svg">
<g clip-path="url(#clip0_1_2)">
<path d="M67 33.25H51C47.5482 33.25 44.75 30.4518 44.75 27V11C44.75 7.47986 47.6008 4.80198 50.7412 5.60599C61.1431 8.26904 69.731 16.8569 72.394 27.2588C73.198 30.3992 70.5201 33.25 67 33.25Z" stroke="black" stroke-width="2.2"/>
<path d="M44.75 67L44.75 51C44.75 47.5482 47.5482 44.75 51 44.75L67 44.75C70.5201 44.75 73.198 47.6008 72.394 50.7412C69.731 61.1431 61.1431 69.731 50.7412 72.394C47.6008 73.198 44.75 70.5201 44.75 67Z" stroke="black" stroke-width="2.2"/>
<path d="M33.25 67L33.25 51C33.25 47.5482 30.4518 44.75 27 44.75L11 44.75C7.47986 44.75 4.80198 47.6008 5.60599 50.7412C8.26904 61.1431 16.8569 69.731 27.2588 72.394C30.3992 73.198 33.25 70.5201 33.25 67Z" stroke="black" stroke-width="2.2"/>
<path d="M33.25 11L33.25 27C33.25 30.4518 30.4518 33.25 27 33.25L11 33.25C7.47986 33.25 4.80198 30.3992 5.60599 27.2588C8.26904 16.8569 16.8569 8.26904 27.2588 5.60599C30.3992 4.80198 33.25 7.47986 33.25 11Z" stroke="black" stroke-width="2.2"/>
</g>
<defs>
<clipPath id="clip0_1_2">
<rect width="70" height="70" fill="white" transform="translate(4 4)"/>
</clipPath>
</defs>
</svg>
