<svg width="70" height="70" viewBox="0 0 70 70" fill="none" xmlns="http://www.w3.org/2000/svg">
<path d="M63 29.5H47C43.4101 29.5 40.5 26.5899 40.5 23V7C40.5 3.36458 43.4612 0.508182 46.8032 1.3638C57.2935 4.0495 65.9505 12.7065 68.6362 23.1968C69.4918 26.5388 66.6354 29.5 63 29.5Z" stroke="black"/>
<path d="M40.5 63L40.5 47C40.5 43.4101 43.4101 40.5 47 40.5L63 40.5C66.6354 40.5 69.4918 43.4612 68.6362 46.8032C65.9505 57.2935 57.2935 65.9505 46.8032 68.6362C43.4612 69.4918 40.5 66.6354 40.5 63Z" stroke="black"/>
<path d="M29.5 63L29.5 47C29.5 43.4101 26.5899 40.5 23 40.5L7 40.5C3.36458 40.5 0.508183 43.4612 1.3638 46.8032C4.0495 57.2935 12.7065 65.9505 23.1968 68.6362C26.5388 69.4918 29.5 66.6354 29.5 63Z" stroke="black"/>
<path d="M29.5 7L29.5 23C29.5 26.5899 26.5899 29.5 23 29.5L7 29.5C3.36458 29.5 0.508183 26.5388 1.3638 23.1968C4.0495 12.7065 12.7065 4.0495 23.1968 1.3638C26.5388 0.508184 29.5 3.36458 29.5 7Z" stroke="black"/>
</svg>
